<svg width="79" height="79" viewBox="0 0 79 79" fill="none" xmlns="http://www.w3.org/2000/svg">
<rect width="79" height="79" fill="#888888"/>
<rect width="1440" height="3455" transform="translate(-338 -1605)" fill="white"/>
<g filter="url(#filter0_i)">
<path fill-rule="evenodd" clip-rule="evenodd" d="M39.6617 0.211598C61.2692 0.211598 78.7856 17.7282 78.7856 39.336C78.7856 60.9432 61.2692 78.4598 39.6617 78.4598C18.054 78.4598 0.537542 60.9432 0.537542 39.336C0.537542 17.7282 18.054 0.211598 39.6617 0.211598Z" fill="white"/>
<path fill-rule="evenodd" clip-rule="evenodd" d="M39.6617 0.211598C61.2692 0.211598 78.7856 17.7282 78.7856 39.336C78.7856 60.9432 61.2692 78.4598 39.6617 78.4598C18.054 78.4598 0.537542 60.9432 0.537542 39.336C0.537542 17.7282 18.054 0.211598 39.6617 0.211598Z" fill="#D7373B"/>
</g>
<g opacity="0.3">
<path d="M46 32V28H42C39.7909 28 38 29.7909 38 32V36H34V40H38V50H42V40H46V36H42V32H46Z" fill="white"/>
</g>
<defs>
<filter id="filter0_i" x="0.537598" y="0.211548" width="78.2481" height="78.2482" filterUnits="userSpaceOnUse" color-interpolation-filters="sRGB">
<feFlood flood-opacity="0" result="BackgroundImageFix"/>
<feBlend mode="normal" in="SourceGraphic" in2="BackgroundImageFix" result="shape"/>
<feColorMatrix in="SourceAlpha" type="matrix" values="0 0 0 0 0 0 0 0 0 0 0 0 0 0 0 0 0 0 127 0" result="hardAlpha"/>
<feOffset dy="3"/>
<feComposite in2="hardAlpha" operator="arithmetic" k2="-1" k3="1"/>
<feColorMatrix type="matrix" values="0 0 0 0 0 0 0 0 0 0.00392157 0 0 0 0 0.00392157 0 0 0 0.1 0"/>
<feBlend mode="normal" in2="shape" result="effect1_innerShadow"/>
</filter>
</defs>
</svg>
